<svg width="112" height="24" viewBox="0 0 112 24" fill="none" xmlns="http://www.w3.org/2000/svg">
  <!-- Red YouTube play button rectangle -->
  <rect x="0.5" y="0.5" width="42" height="23" rx="8" fill="#FF0000"/>
  
  <!-- White play triangle -->
  <path d="M17.5 6.7L27.5 12L17.5 17.3V6.7Z" fill="#FFFFFF"/>
  
  <!-- YouTube text (white) - "HOLINE" removed -->
  <path d="M51.2 17V7.2H55V10.7H58.1V7.2H62V17H58.1V13.9H55V17H51.2Z" fill="#F1F1F1"/>
  <path d="M67.8 17.2C64.9 17.2 63 15.1 63 12.1C63 9.1 64.9 7 67.8 7C70.8 7 72.7 9.1 72.7 12.1C72.7 15.1 70.8 17.2 67.8 17.2ZM67.8 14.5C68.8 14.5 69.4 13.5 69.4 12.1C69.4 10.7 68.8 9.7 67.8 9.7C66.9 9.7 66.2 10.7 66.2 12.1C66.2 13.5 66.9 14.5 67.8 14.5Z" fill="#F1F1F1"/>
  <path d="M73.9 17V7.2H77.8V14.3H81.2V17H73.9Z" fill="#F1F1F1"/>
  <path d="M82 17V7.2H85.9V17H82Z" fill="#F1F1F1"/>
  <path d="M87 17V7.2H90.9L94.4 12.4V7.2H98.2V17H94.4L90.9 11.9V17H87Z" fill="#F1F1F1"/>
  <path d="M99.5 17V7.2H108V9.8H103.3V10.9H107.5V13.4H103.3V14.4H108.2V17H99.5Z" fill="#F1F1F1"/>
</svg>